<?xml version="1.0" encoding="utf-8"?>
<!-- Generator: Adobe Illustrator 24.1.1, SVG Export Plug-In . SVG Version: 6.00 Build 0)  -->
<svg version="1.1" id="Layer_1" xmlns="http://www.w3.org/2000/svg" xmlns:xlink="http://www.w3.org/1999/xlink" x="0px" y="0px"
	 viewBox="0 0 85 38" style="enable-background:new 0 0 85 38;" xml:space="preserve">
<style type="text/css">
	.st0{fill:#FFFFFF;}
</style>
<g>
	<path class="st0" d="M84.9,21.9c-0.3-1.7-0.8-2.7-1.3-3.9c-0.3-0.8-0.6-1.5-0.7-1.9c-0.3-1.2-0.1-2.6-0.1-3.1h-3.1l-0.5,0.8
		c-1.2,1.9-3.8,6-3.8,6c-1.4,2.2-3.2,4.9-5.8,5.9c-0.5,0.2-1.5,0.5-2.3-0.4c-0.8-0.9-0.7-1.9-0.7-1.9l0,0l0,0l0,0l0,0
		c3.4-3.2,6.7-6.8,8.3-9.1c1.9-2.6,2.8-4.8,3.6-6.6c0.5-1.1,1.4-4,0.4-5.9c-0.4-0.8-1.2-1.3-2.1-1.5c-0.2,0-0.3-0.1-0.5-0.1
		c-1.9,0-4.2,2.4-7,7.4c-2.3,4.1-3.9,7.7-4.9,10.6c-0.5,1.5-0.8,3.4-0.8,3.4c-0.1,0.2-2,2.4-3.8,3.6C59,25.5,58.1,26,56.8,26
		c-1.2,0-2.3-0.7-2.3-0.7c0,0,1.9-1,5-4.1c1.7-1.6,2.4-3.9,1.8-5.8c-0.8-3.1-3.8-3.3-4.6-3.3c-2.5,0-4.4,1.6-5.4,3
		c-2.3,3.3-2.2,6-1.9,7.9c0.1,0.6,0.3,1.3,0.6,1.9l0,0.1c0,0-3.7,2.6-5.8-0.4C43.3,23.4,42,21,42,21l7.7-8.1h-4.1
		c-2.6,2.7-5.1,5.3-5.1,5.3c0,0-1.8-3.5-2.7-5.3h-3.3c0.3,0.6,0.6,1.2,0.9,1.8c1.1,2.1,2.9,5.7,2.9,5.7c0,0-0.8,0.8-0.8,0.8
		c-0.4,0.4-1.7,1.8-3.8,3c-1.1,0.7-2.4,1.2-3.7,1.5c-1,0.2-2.4,0.2-3.2,0c-0.5-0.1-1.3-0.5-1.3-0.5c0,0,2.4-1.5,5-4.1
		c1.7-1.6,2.4-3.9,1.8-5.8c-0.8-3.1-3.8-3.3-4.6-3.3c-2.5,0-4.4,1.6-5.4,3c-2.3,3.3-2.2,6-1.9,7.9c0.1,0.6,0.5,1.7,0.5,1.7
		c-1.8,0.9-3.5,1.5-5.5,1.6c-0.2,0-0.9,0-1.2,0c-0.1,0-0.2,0-0.2,0c0,0,0.4-0.3,0.5-0.3c2.5-1.7,3.7-4.8,3.7-7.6
		c0.1-2.3-0.5-4.1-1.5-5.2c-0.6-0.7-1.5-1-2.6-1h0c-1.8,0-3.9,1.1-5.4,2.5C8.5,14.9,7.5,16,7.5,16l0.6-3H4.9L0,37.7h3.2l2.9-14.5
		c0.6-2.7,1.6-4.5,3.4-6.2l0,0c0.5-0.4,1-0.7,1.5-1c0.8-0.5,1.5-0.7,2.2-0.7c0.4,0,0.7,0.1,1,0.2c1,0.6,1.2,2,1.2,2.8
		c0.3,3-2.1,5-2.3,5.3c-0.8,0.6-1.6,0.9-2.4,0.9c-1.2,0-2.1-0.4-2.5-0.6c0,0.1-0.1,0.7-0.1,0.7c-0.1,0.6-0.4,1.8-0.4,1.8
		c1.3,1.1,3.8,2.3,7.2,2.5c0.3,0,0.5,0,0.8,0c2.5,0,4.9-0.6,7.2-1.9l0,0l0,0c0.9,0.8,1.7,1.1,2,1.2c1.6,0.7,3.4,0.7,3.5,0.7
		c2.1,0,4.1-0.6,4.7-0.8c3.5-1.2,5.5-3.4,6.3-4.2l0.6-0.6l0.4,0.7c0.5,0.9,1,1.9,2,3c0.4,0.5,1.9,2,4.6,2c2.5,0,5.1-1.7,5.1-1.7
		c0,0,0.9,0.7,1.8,1.1c1.2,0.5,2.5,0.6,3,0.6c2.6,0,4.8-1,7-3.2l0.1-0.1c0,0,0.3,0.8,0.6,1.2c1.4,2.1,3.3,2.1,3.9,2.1
		c0.6,0,1.6-0.1,2.4-0.4c3.4-1.3,6-4.9,7.3-7c0,0,1-1.5,2.1-3.9l0.3-0.5c0,0,0.6,1.4,0.6,1.4c0.3,0.8,0.7,1.8,0.8,2.4
		c0.4,1.7,0.7,3.1-0.1,4.1c-0.4,0.5-1.2,1-2.1,1c-0.5,0-0.9-0.1-1.3-0.4c-0.1-0.1-0.3-0.2-0.5-0.4c-0.6,0.8-1.3,1.5-2,2.2
		c0.6,0.4,1.9,1.4,4,1.4c0.6,0,1.5-0.2,2.1-0.4C84.1,27.3,85.4,24.9,84.9,21.9z M67.8,17.3l0.2-0.6c0.9-2.1,2.1-4.7,3.8-7.7
		c2-3.5,3.3-4.9,3.9-5.5l0.2-0.2L76,3.3l0,0.1l0,0.2c0,0.7-0.2,1.8-0.6,2.8c-0.7,1.7-1.5,3.6-3.2,5.9c-0.8,1.2-2.2,2.8-3.9,4.5
		L68,17.4l-0.3,0.3L67.8,17.3z M24.1,22.9L24.1,22.9c-0.1,0.1-0.2-0.2-0.2-0.3c-0.2-0.7-0.3-1.8-0.2-2.7c0.2-1.6,0.9-2.7,1.2-3
		c0.9-1.2,1.9-1.8,2.8-1.9c0.3,0,0.9,0,1.4,0.5c0.5,0.4,1.3,2-0.5,3.9c-0.5,0.6-1,1-2.1,1.9C25.7,21.8,24.4,22.7,24.1,22.9z
		 M52.9,22.9L52.9,22.9l-0.1,0l-0.1-0.3c-0.3-0.9-0.3-1.8-0.2-2.7c0.2-1.6,0.9-2.7,1.2-3c0.9-1.2,1.9-1.8,2.8-1.9c0.1,0,0.1,0,0.2,0
		c0.5,0,0.8,0.2,1.2,0.5c0.5,0.4,1.3,2-0.5,3.9c-0.5,0.6-1,1-2.1,1.9C54.4,21.9,52.9,22.9,52.9,22.9z"/>
</g>
</svg>
